<svg width="102" height="96" viewBox="0 0 102 96" fill="none" xmlns="http://www.w3.org/2000/svg">
<g clip-path="url(#clip0_173_184)">
<path d="M15 26L21 32L15 38" fill="#9AA3AF"/>
<path d="M15 26L21 32L15 38V26Z" stroke="#9AA3AF" stroke-linecap="round" stroke-linejoin="round"/>
</g>
<g clip-path="url(#clip1_173_184)">
<path d="M50 26L56 32L50 38" fill="#0A6BE5"/>
<path d="M50 26L56 32L50 38V26Z" stroke="#0A6BE5" stroke-linecap="round" stroke-linejoin="round"/>
</g>
<g clip-path="url(#clip2_173_184)">
<path d="M80 26L86 32L80 38" fill="#EBEBEB"/>
<path d="M80 26L86 32L80 38V26Z" stroke="#EBEBEB" stroke-linecap="round" stroke-linejoin="round"/>
</g>
<g clip-path="url(#clip3_173_184)">
<path d="M21 70L15 76L21 82" fill="#9AA3AF"/>
<path d="M21 70L15 76L21 82V70Z" stroke="#9AA3AF" stroke-linecap="round" stroke-linejoin="round"/>
</g>
<g clip-path="url(#clip4_173_184)">
<path d="M55 69L49 75L55 81" fill="#0A6BE5"/>
<path d="M55 69L49 75L55 81V69Z" stroke="#0A6BE5" stroke-linecap="round" stroke-linejoin="round"/>
</g>
<g clip-path="url(#clip5_173_184)">
<path d="M86 68L80 74L86 80" fill="#EBEBEB"/>
<path d="M86 68L80 74L86 80V68Z" stroke="#EBEBEB" stroke-linecap="round" stroke-linejoin="round"/>
</g>
<rect x="0.5" y="0.5" width="101" height="95" rx="4.5" stroke="#1D1E20" stroke-dasharray="10 5"/>
<defs>
<clipPath id="clip0_173_184">
<rect width="8" height="14" fill="white" transform="matrix(1 0 0 -1 14 39)"/>
</clipPath>
<clipPath id="clip1_173_184">
<rect width="8" height="14" fill="white" transform="matrix(1 0 0 -1 49 39)"/>
</clipPath>
<clipPath id="clip2_173_184">
<rect width="8" height="14" fill="white" transform="matrix(1 0 0 -1 79 39)"/>
</clipPath>
<clipPath id="clip3_173_184">
<rect width="8" height="14" fill="white" transform="matrix(-1 0 0 -1 22 83)"/>
</clipPath>
<clipPath id="clip4_173_184">
<rect width="8" height="14" fill="white" transform="matrix(-1 0 0 -1 56 82)"/>
</clipPath>
<clipPath id="clip5_173_184">
<rect width="8" height="14" fill="white" transform="matrix(-1 0 0 -1 87 81)"/>
</clipPath>
</defs>
</svg>
