<svg width="16" height="14" viewBox="0 0 16 14" fill="none" xmlns="http://www.w3.org/2000/svg">
<path d="M10.6854 6.99945C10.6854 8.48445 9.48543 9.68445 8.00043 9.68445C6.51543 9.68445 5.31543 8.48445 5.31543 6.99945C5.31543 5.51445 6.51543 4.31445 8.00043 4.31445C9.48543 4.31445 10.6854 5.51445 10.6854 6.99945Z" stroke="#42494F" stroke-linecap="round" stroke-linejoin="round"/>
<path d="M7.99988 13.2016C10.6474 13.2016 13.1149 11.6416 14.8324 8.94156C15.5074 7.88406 15.5074 6.10656 14.8324 5.04906C13.1149 2.34906 10.6474 0.789062 7.99988 0.789062C5.35238 0.789062 2.88488 2.34906 1.16738 5.04906C0.492383 6.10656 0.492383 7.88406 1.16738 8.94156C2.88488 11.6416 5.35238 13.2016 7.99988 13.2016Z" stroke="#42494F" stroke-linecap="round" stroke-linejoin="round"/>
</svg>
