<svg width="32" height="32" viewBox="0 0 32 32" fill="none" xmlns="http://www.w3.org/2000/svg">
<rect width="32" height="32" fill="white"/>
<mask id="path-1-inside-1_861_25266" fill="white">
<path fill-rule="evenodd" clip-rule="evenodd" d="M13.201 17.3333L10.5345 20C10.5345 20 9.22899 19.9075 8.49021 19.5699C7.77446 19.2428 7.44291 19.0001 6.89032 18.4516C6.45886 18.0234 6.19316 17.6942 5.9126 17.1613C5.55709 16.486 5.48234 16.0266 5.46819 15.2688C5.4528 14.4454 5.56296 13.9551 5.9126 13.2043C6.38756 12.1844 7.77915 10.9677 7.77915 10.9677L10.5345 8.3871L15.0676 4H19.1562L9.73457 13.1183C9.73457 13.1183 8.84574 14.0645 8.66798 14.4086C8.49021 14.7527 8.43421 14.9247 8.40133 15.2688C8.36845 15.6129 8.40133 15.871 8.49021 16.129C8.57909 16.3871 8.97907 16.8172 9.29016 16.9892C9.60125 17.1613 10.0939 17.318 10.4456 17.3333C10.956 17.3555 11.3345 17.3333 11.3345 17.3333H13.201ZM11.69 14.7527L22.6226 4H26.8001L15.8675 14.7527H13.9121H11.69ZM19.0666 14.6667L21.7331 12C21.7331 12 23.0386 12.0925 23.7774 12.4301C24.4931 12.7572 24.8247 12.9999 25.3773 13.5484C25.8087 13.9766 26.0744 14.3058 26.355 14.8387C26.7105 15.514 26.7852 15.9734 26.7994 16.7312C26.8148 17.5546 26.7046 18.0449 26.355 18.7957C25.88 19.8156 24.4884 21.0323 24.4884 21.0323L21.7331 23.6129L17.2 28H13.1114L22.533 18.8817C22.533 18.8817 23.4218 17.9355 23.5996 17.5914C23.7774 17.2473 23.8334 17.0753 23.8662 16.7312C23.8991 16.3871 23.8662 16.129 23.7774 15.871C23.6885 15.6129 23.2885 15.1828 22.9774 15.0108C22.6663 14.8387 22.1737 14.682 21.8219 14.6667C21.3115 14.6445 20.9331 14.6667 20.9331 14.6667H19.0666ZM20.5776 17.2473L9.64495 28H5.46745L16.4001 17.2473H18.3555H20.5776Z"/>
</mask>
<path fill-rule="evenodd" clip-rule="evenodd" d="M13.201 17.3333L10.5345 20C10.5345 20 9.22899 19.9075 8.49021 19.5699C7.77446 19.2428 7.44291 19.0001 6.89032 18.4516C6.45886 18.0234 6.19316 17.6942 5.9126 17.1613C5.55709 16.486 5.48234 16.0266 5.46819 15.2688C5.4528 14.4454 5.56296 13.9551 5.9126 13.2043C6.38756 12.1844 7.77915 10.9677 7.77915 10.9677L10.5345 8.3871L15.0676 4H19.1562L9.73457 13.1183C9.73457 13.1183 8.84574 14.0645 8.66798 14.4086C8.49021 14.7527 8.43421 14.9247 8.40133 15.2688C8.36845 15.6129 8.40133 15.871 8.49021 16.129C8.57909 16.3871 8.97907 16.8172 9.29016 16.9892C9.60125 17.1613 10.0939 17.318 10.4456 17.3333C10.956 17.3555 11.3345 17.3333 11.3345 17.3333H13.201ZM11.69 14.7527L22.6226 4H26.8001L15.8675 14.7527H13.9121H11.69ZM19.0666 14.6667L21.7331 12C21.7331 12 23.0386 12.0925 23.7774 12.4301C24.4931 12.7572 24.8247 12.9999 25.3773 13.5484C25.8087 13.9766 26.0744 14.3058 26.355 14.8387C26.7105 15.514 26.7852 15.9734 26.7994 16.7312C26.8148 17.5546 26.7046 18.0449 26.355 18.7957C25.88 19.8156 24.4884 21.0323 24.4884 21.0323L21.7331 23.6129L17.2 28H13.1114L22.533 18.8817C22.533 18.8817 23.4218 17.9355 23.5996 17.5914C23.7774 17.2473 23.8334 17.0753 23.8662 16.7312C23.8991 16.3871 23.8662 16.129 23.7774 15.871C23.6885 15.6129 23.2885 15.1828 22.9774 15.0108C22.6663 14.8387 22.1737 14.682 21.8219 14.6667C21.3115 14.6445 20.9331 14.6667 20.9331 14.6667H19.0666ZM20.5776 17.2473L9.64495 28H5.46745L16.4001 17.2473H18.3555H20.5776Z" fill="#0A6BE5"/>
<path d="M10.5345 20L10.523 20.1627L10.5972 20.168L10.6499 20.1153L10.5345 20ZM13.201 17.3333L13.3164 17.4487L13.5948 17.1702H13.201V17.3333ZM8.49021 19.5699L8.55801 19.4215H8.55801L8.49021 19.5699ZM6.89032 18.4516L7.00523 18.3358L6.89032 18.4516ZM5.9126 17.1613L5.76826 17.2373H5.76826L5.9126 17.1613ZM5.46819 15.2688L5.30509 15.2719L5.46819 15.2688ZM5.9126 13.2043L6.06048 13.2732L5.9126 13.2043ZM7.77915 10.9677L7.88658 11.0906L7.89066 11.0868L7.77915 10.9677ZM10.5345 8.3871L10.646 8.50617L10.648 8.50431L10.5345 8.3871ZM15.0676 4V3.83688H15.0016L14.9541 3.88278L15.0676 4ZM19.1562 4L19.2696 4.11722L19.5593 3.83688H19.1562V4ZM9.73457 13.1183L9.621 13.0009L9.61568 13.0066L9.73457 13.1183ZM8.66798 14.4086L8.8129 14.4835H8.8129L8.66798 14.4086ZM8.40133 15.2688L8.23894 15.2533L8.40133 15.2688ZM8.49021 16.129L8.33598 16.1822L8.49021 16.129ZM9.29016 16.9892L9.21121 17.132H9.21121L9.29016 16.9892ZM10.4456 17.3333L10.4527 17.1704H10.4527L10.4456 17.3333ZM11.3345 17.3333V17.1699L11.3249 17.1705L11.3345 17.3333ZM22.6226 4V3.83688H22.5558L22.5082 3.8837L22.6226 4ZM11.69 14.7527L11.5756 14.6364L11.2915 14.9158H11.69V14.7527ZM26.8001 4L26.9145 4.1163L27.1986 3.83688H26.8001V4ZM15.8675 14.7527V14.9158H15.9343L15.9819 14.869L15.8675 14.7527ZM21.7331 12L21.7446 11.8373L21.6703 11.832L21.6177 11.8847L21.7331 12ZM19.0666 14.6667L18.9512 14.5513L18.6728 14.8298H19.0666V14.6667ZM23.7774 12.4301L23.8452 12.2817L23.7774 12.4301ZM25.3773 13.5484L25.2623 13.6642V13.6642L25.3773 13.5484ZM26.355 14.8387L26.2106 14.9147L26.355 14.8387ZM26.7994 16.7312L26.9625 16.7281V16.7281L26.7994 16.7312ZM26.355 18.7957L26.5029 18.8646L26.355 18.7957ZM24.4884 21.0323L24.381 20.9094L24.3769 20.9132L24.4884 21.0323ZM21.7331 23.6129L21.6215 23.4938L21.6196 23.4957L21.7331 23.6129ZM17.2 28V28.1631H17.266L17.3135 28.1172L17.2 28ZM13.1114 28L12.998 27.8828L12.7083 28.1631H13.1114V28ZM22.533 18.8817L22.6466 18.9991L22.6519 18.9934L22.533 18.8817ZM23.5996 17.5914L23.7445 17.6663V17.6663L23.5996 17.5914ZM23.8662 16.7312L23.7039 16.7157V16.7157L23.8662 16.7312ZM21.8219 14.6667L21.8148 14.8296L21.8219 14.6667ZM20.9331 14.6667V14.8301L20.9427 14.8295L20.9331 14.6667ZM9.64495 28V28.1631H9.71173L9.75934 28.1163L9.64495 28ZM20.5776 17.2473L20.692 17.3636L20.9761 17.0842H20.5776V17.2473ZM5.46745 28L5.35306 27.8837L5.06896 28.1631H5.46745V28ZM16.4001 17.2473V17.0842H16.3333L16.2857 17.131L16.4001 17.2473ZM10.6499 20.1153L13.3164 17.4487L13.0857 17.218L10.4192 19.8847L10.6499 20.1153ZM8.42241 19.7183C8.81334 19.8969 9.34316 20.007 9.76427 20.0727C9.97699 20.1059 10.1661 20.1284 10.3021 20.1425C10.3701 20.1496 10.425 20.1546 10.463 20.1579C10.482 20.1595 10.4969 20.1607 10.507 20.1615C10.5121 20.1619 10.516 20.1622 10.5187 20.1624C10.52 20.1625 10.521 20.1626 10.5218 20.1626C10.5221 20.1627 10.5224 20.1627 10.5226 20.1627C10.5227 20.1627 10.5228 20.1627 10.5229 20.1627C10.5229 20.1627 10.5229 20.1627 10.5229 20.1627C10.523 20.1627 10.523 20.1627 10.5345 20C10.5461 19.8373 10.5461 19.8373 10.5461 19.8373C10.5461 19.8373 10.5461 19.8373 10.5461 19.8373C10.546 19.8373 10.546 19.8373 10.546 19.8373C10.5458 19.8373 10.5456 19.8373 10.5454 19.8372C10.5448 19.8372 10.544 19.8371 10.5428 19.837C10.5405 19.8369 10.537 19.8366 10.5324 19.8362C10.523 19.8355 10.5091 19.8344 10.4909 19.8328C10.4547 19.8297 10.4018 19.8249 10.3359 19.818C10.204 19.8043 10.0206 19.7825 9.81455 19.7504C9.3982 19.6854 8.90586 19.5805 8.55801 19.4215L8.42241 19.7183ZM6.7754 18.5674C7.34026 19.128 7.68745 19.3824 8.42241 19.7183L8.55801 19.4215C7.86147 19.1032 7.54556 18.8721 7.00523 18.3358L6.7754 18.5674ZM5.76826 17.2373C6.05828 17.7882 6.33513 18.1304 6.7754 18.5674L7.00523 18.3358C6.58259 17.9164 6.32805 17.6003 6.05694 17.0853L5.76826 17.2373ZM5.30509 15.2719C5.31957 16.0469 5.39757 16.5332 5.76826 17.2373L6.05694 17.0853C5.7166 16.4388 5.64512 16.0063 5.63128 15.2658L5.30509 15.2719ZM5.76472 13.1354C5.4051 13.9077 5.28922 14.4225 5.30509 15.2719L5.63128 15.2658C5.61638 14.4683 5.72082 14.0026 6.06048 13.2732L5.76472 13.1354ZM7.77915 10.9677C7.67178 10.8449 7.67176 10.845 7.67173 10.845C7.67172 10.845 7.67169 10.845 7.67166 10.845C7.67159 10.8451 7.67151 10.8452 7.67141 10.8453C7.6712 10.8454 7.6709 10.8457 7.67053 10.846C7.66978 10.8467 7.6687 10.8476 7.66729 10.8489C7.66448 10.8514 7.66037 10.855 7.65505 10.8597C7.6444 10.8692 7.62886 10.8831 7.60899 10.901C7.56927 10.937 7.51223 10.9892 7.44239 11.0551C7.30279 11.1867 7.11165 11.3729 6.90533 11.5916C6.49634 12.0251 6.01398 12.6002 5.76472 13.1354L6.06048 13.2732C6.28618 12.7885 6.73709 12.2453 7.14263 11.8155C7.34358 11.6025 7.53002 11.4208 7.66619 11.2925C7.73423 11.2283 7.78962 11.1776 7.82785 11.143C7.84697 11.1257 7.86179 11.1124 7.87176 11.1036C7.87674 11.0992 7.88051 11.0958 7.88299 11.0936C7.88423 11.0926 7.88515 11.0917 7.88574 11.0912C7.88604 11.091 7.88625 11.0908 7.88638 11.0907C7.88644 11.0906 7.88649 11.0906 7.88651 11.0906C7.88652 11.0905 7.88652 11.0905 7.88653 11.0905C7.88652 11.0905 7.88651 11.0905 7.77915 10.9677ZM10.423 8.26804L7.66764 10.8487L7.89066 11.0868L10.646 8.50616L10.423 8.26804ZM14.9541 3.88278L10.4211 8.26988L10.648 8.50431L15.181 4.11722L14.9541 3.88278ZM19.1562 3.83688H15.0676V4.16312H19.1562V3.83688ZM9.84802 13.2355L19.2696 4.11722L19.0427 3.88278L9.62113 13.0011L9.84802 13.2355ZM8.8129 14.4835C8.84939 14.4128 8.92928 14.3001 9.03762 14.163C9.14359 14.0288 9.2694 13.8806 9.39074 13.7418C9.51191 13.6032 9.6277 13.4751 9.71325 13.3816C9.75601 13.3349 9.79115 13.2969 9.81557 13.2706C9.82778 13.2575 9.8373 13.2473 9.84375 13.2404C9.84697 13.2369 9.84943 13.2343 9.85106 13.2325C9.85188 13.2317 9.8525 13.231 9.8529 13.2306C9.8531 13.2304 9.85325 13.2302 9.85335 13.2301C9.85339 13.23 9.85343 13.23 9.85345 13.23C9.85346 13.23 9.85346 13.23 9.85347 13.23C9.85347 13.23 9.85347 13.23 9.73457 13.1183C9.61568 13.0066 9.61567 13.0066 9.61566 13.0066C9.61565 13.0066 9.61564 13.0066 9.61562 13.0067C9.61559 13.0067 9.61554 13.0067 9.61548 13.0068C9.61536 13.0069 9.61519 13.0071 9.61496 13.0074C9.61451 13.0078 9.61385 13.0085 9.61298 13.0095C9.61124 13.0113 9.60868 13.0141 9.60535 13.0176C9.59869 13.0248 9.58895 13.0352 9.5765 13.0486C9.55162 13.0754 9.51593 13.114 9.47258 13.1614C9.38592 13.2561 9.26839 13.3861 9.14513 13.527C9.02205 13.6678 8.89232 13.8206 8.78164 13.9607C8.67332 14.0978 8.57544 14.2323 8.52305 14.3337L8.8129 14.4835ZM8.56371 15.2843C8.57954 15.1188 8.60024 15.0018 8.63602 14.8874C8.67214 14.7718 8.72554 14.6526 8.8129 14.4835L8.52305 14.3337C8.43265 14.5087 8.36916 14.6476 8.32463 14.79C8.27974 14.9336 8.256 15.0748 8.23894 15.2533L8.56371 15.2843ZM8.64444 16.0759C8.56384 15.8419 8.53284 15.6074 8.56371 15.2843L8.23894 15.2533C8.20406 15.6184 8.23882 15.9 8.33598 16.1822L8.64444 16.0759ZM9.3691 16.8465C9.23374 16.7716 9.06932 16.6341 8.92631 16.4803C8.78054 16.3236 8.6775 16.1719 8.64444 16.0759L8.33598 16.1822C8.39181 16.3442 8.5332 16.5367 8.6874 16.7025C8.84438 16.8713 9.03548 17.0348 9.21121 17.132L9.3691 16.8465ZM10.4527 17.1704C10.1306 17.1564 9.66235 17.0087 9.3691 16.8465L9.21121 17.132C9.54015 17.3139 10.0572 17.4797 10.4386 17.4963L10.4527 17.1704ZM11.3345 17.3333C11.3249 17.1705 11.3249 17.1705 11.3249 17.1705C11.3249 17.1705 11.3249 17.1705 11.3249 17.1705C11.3249 17.1705 11.3249 17.1705 11.3249 17.1705C11.3249 17.1705 11.3249 17.1705 11.3248 17.1705C11.3247 17.1705 11.3245 17.1705 11.3242 17.1705C11.3236 17.1706 11.3226 17.1706 11.3213 17.1707C11.3186 17.1708 11.3145 17.1711 11.3091 17.1713C11.2983 17.1719 11.282 17.1726 11.2609 17.1735C11.2185 17.1752 11.1565 17.1772 11.0786 17.1786C10.9228 17.1813 10.7039 17.1813 10.4527 17.1704L10.4386 17.4963C10.6977 17.5076 10.9233 17.5076 11.0843 17.5048C11.1648 17.5033 11.2293 17.5012 11.2739 17.4994C11.2962 17.4986 11.3135 17.4978 11.3253 17.4972C11.3312 17.4969 11.3358 17.4966 11.3389 17.4965C11.3405 17.4964 11.3417 17.4963 11.3426 17.4963C11.343 17.4962 11.3433 17.4962 11.3436 17.4962C11.3437 17.4962 11.3438 17.4962 11.3439 17.4962C11.3439 17.4962 11.3439 17.4962 11.344 17.4962C11.344 17.4962 11.344 17.4962 11.344 17.4962C11.344 17.4962 11.344 17.4962 11.3345 17.3333ZM13.201 17.1702H11.3345V17.4965H13.201V17.1702ZM22.5082 3.8837L11.5756 14.6364L11.8044 14.869L22.737 4.1163L22.5082 3.8837ZM26.8001 3.83688H22.6226V4.16312H26.8001V3.83688ZM15.9819 14.869L26.9145 4.1163L26.6857 3.8837L15.7531 14.6364L15.9819 14.869ZM13.9121 14.9158H15.8675V14.5896H13.9121V14.9158ZM11.69 14.9158H13.9121V14.5896H11.69V14.9158ZM21.6177 11.8847L18.9512 14.5513L19.1819 14.782L21.8484 12.1153L21.6177 11.8847ZM23.8452 12.2817C23.4542 12.1031 22.9244 11.993 22.5033 11.9273C22.2906 11.8941 22.1015 11.8716 21.9655 11.8575C21.8974 11.8504 21.8426 11.8454 21.8045 11.8421C21.7855 11.8405 21.7707 11.8393 21.7606 11.8385C21.7555 11.8381 21.7516 11.8378 21.7489 11.8376C21.7476 11.8375 21.7465 11.8374 21.7458 11.8374C21.7454 11.8373 21.7452 11.8373 21.745 11.8373C21.7449 11.8373 21.7448 11.8373 21.7447 11.8373C21.7447 11.8373 21.7446 11.8373 21.7446 11.8373C21.7446 11.8373 21.7446 11.8373 21.7331 12C21.7215 12.1627 21.7215 12.1627 21.7215 12.1627C21.7215 12.1627 21.7215 12.1627 21.7215 12.1627C21.7215 12.1627 21.7216 12.1627 21.7216 12.1627C21.7217 12.1627 21.7219 12.1627 21.7222 12.1628C21.7227 12.1628 21.7236 12.1629 21.7247 12.163C21.727 12.1631 21.7305 12.1634 21.7352 12.1638C21.7446 12.1645 21.7585 12.1656 21.7766 12.1672C21.8129 12.1703 21.8658 12.1751 21.9317 12.182C22.0636 12.1957 22.247 12.2175 22.453 12.2496C22.8694 12.3146 23.3617 12.4195 23.7096 12.5785L23.8452 12.2817ZM25.4922 13.4326C24.9273 12.872 24.5801 12.6176 23.8452 12.2817L23.7096 12.5785C24.4061 12.8968 24.722 13.1279 25.2623 13.6642L25.4922 13.4326ZM26.4993 14.7627C26.2093 14.2118 25.9324 13.8696 25.4922 13.4326L25.2623 13.6642C25.685 14.0836 25.9395 14.3997 26.2106 14.9147L26.4993 14.7627ZM26.9625 16.7281C26.948 15.9531 26.87 15.4668 26.4993 14.7627L26.2106 14.9147C26.551 15.5612 26.6225 15.9937 26.6363 16.7342L26.9625 16.7281ZM26.5029 18.8646C26.8625 18.0923 26.9784 17.5775 26.9625 16.7281L26.6363 16.7342C26.6512 17.5317 26.5468 17.9974 26.2071 18.7268L26.5029 18.8646ZM24.4884 21.0323C24.5958 21.1551 24.5958 21.155 24.5958 21.155C24.5959 21.155 24.5959 21.155 24.5959 21.155C24.596 21.1549 24.5961 21.1548 24.5962 21.1547C24.5964 21.1546 24.5967 21.1543 24.597 21.154C24.5978 21.1533 24.5989 21.1524 24.6003 21.1511C24.6031 21.1486 24.6072 21.145 24.6125 21.1403C24.6232 21.1308 24.6387 21.1169 24.6586 21.099C24.6983 21.063 24.7554 21.0108 24.8252 20.9449C24.9648 20.8133 25.1559 20.6271 25.3622 20.4084C25.7712 19.9749 26.2536 19.3998 26.5029 18.8646L26.2071 18.7268C25.9814 19.2115 25.5305 19.7547 25.1249 20.1845C24.924 20.3975 24.7376 20.5792 24.6014 20.7075C24.5333 20.7717 24.478 20.8224 24.4397 20.857C24.4206 20.8743 24.4058 20.8876 24.3958 20.8964C24.3908 20.9008 24.3871 20.9042 24.3846 20.9064C24.3833 20.9074 24.3824 20.9083 24.3818 20.9088C24.3815 20.909 24.3813 20.9092 24.3812 20.9093C24.3811 20.9094 24.3811 20.9094 24.3811 20.9094C24.3811 20.9095 24.3811 20.9095 24.3811 20.9095C24.3811 20.9095 24.3811 20.9094 24.4884 21.0323ZM21.8446 23.732L24.5999 21.1513L24.3769 20.9132L21.6215 23.4938L21.8446 23.732ZM17.3135 28.1172L21.8465 23.7301L21.6196 23.4957L17.0866 27.8828L17.3135 28.1172ZM13.1114 28.1631H17.2V27.8369H13.1114V28.1631ZM22.4196 18.7645L12.998 27.8828L13.2248 28.1172L22.6464 18.9989L22.4196 18.7645ZM23.4547 17.5165C23.4182 17.5872 23.3383 17.6999 23.23 17.837C23.124 17.9712 22.9982 18.1194 22.8768 18.2582C22.7557 18.3968 22.6399 18.5249 22.5543 18.6184C22.5116 18.6651 22.4764 18.7031 22.452 18.7294C22.4398 18.7425 22.4303 18.7527 22.4238 18.7596C22.4206 18.7631 22.4182 18.7657 22.4165 18.7675C22.4157 18.7683 22.4151 18.769 22.4147 18.7694C22.4145 18.7696 22.4143 18.7698 22.4142 18.7699C22.4142 18.77 22.4142 18.77 22.4141 18.77C22.4141 18.77 22.4141 18.77 22.4141 18.77C22.4141 18.77 22.4141 18.77 22.533 18.8817C22.6519 18.9934 22.6519 18.9934 22.6519 18.9934C22.6519 18.9934 22.6519 18.9934 22.652 18.9933C22.652 18.9933 22.652 18.9933 22.6521 18.9932C22.6522 18.9931 22.6524 18.9929 22.6526 18.9926C22.6531 18.9922 22.6537 18.9915 22.6546 18.9905C22.6563 18.9887 22.6589 18.9859 22.6622 18.9824C22.6689 18.9752 22.6786 18.9648 22.6911 18.9514C22.716 18.9246 22.7516 18.886 22.795 18.8386C22.8817 18.7439 22.9992 18.6139 23.1224 18.473C23.2455 18.3322 23.3753 18.1794 23.4859 18.0393C23.5943 17.9022 23.6921 17.7677 23.7445 17.6663L23.4547 17.5165ZM23.7039 16.7157C23.688 16.8812 23.6673 16.9982 23.6316 17.1126C23.5954 17.2282 23.542 17.3474 23.4547 17.5165L23.7445 17.6663C23.8349 17.4913 23.8984 17.3524 23.943 17.21C23.9878 17.0664 24.0116 16.9252 24.0286 16.7467L23.7039 16.7157ZM23.6231 15.9241C23.7037 16.1581 23.7347 16.3926 23.7039 16.7157L24.0286 16.7467C24.0635 16.3816 24.0288 16.1 23.9316 15.8178L23.6231 15.9241ZM22.8985 15.1535C23.0338 15.2284 23.1983 15.3659 23.3413 15.5197C23.487 15.6764 23.5901 15.8281 23.6231 15.9241L23.9316 15.8178C23.8758 15.6558 23.7344 15.4633 23.5802 15.2975C23.4232 15.1287 23.2321 14.9652 23.0564 14.868L22.8985 15.1535ZM21.8148 14.8296C22.137 14.8436 22.6052 14.9913 22.8985 15.1535L23.0564 14.868C22.7274 14.6861 22.2103 14.5203 21.829 14.5037L21.8148 14.8296ZM20.9331 14.6667C20.9427 14.8295 20.9427 14.8295 20.9426 14.8295C20.9426 14.8295 20.9426 14.8295 20.9426 14.8295C20.9426 14.8295 20.9426 14.8295 20.9426 14.8295C20.9427 14.8295 20.9427 14.8295 20.9428 14.8295C20.9429 14.8295 20.9431 14.8295 20.9434 14.8295C20.944 14.8294 20.945 14.8294 20.9463 14.8293C20.949 14.8292 20.953 14.8289 20.9585 14.8287C20.9693 14.8281 20.9855 14.8274 21.0067 14.8265C21.0491 14.8248 21.1111 14.8228 21.189 14.8214C21.3448 14.8187 21.5636 14.8187 21.8148 14.8296L21.829 14.5037C21.5698 14.4924 21.3442 14.4924 21.1833 14.4952C21.1027 14.4967 21.0383 14.4988 20.9937 14.5006C20.9714 14.5014 20.9541 14.5022 20.9423 14.5028C20.9363 14.5031 20.9318 14.5034 20.9286 14.5035C20.9271 14.5036 20.9259 14.5037 20.925 14.5037C20.9246 14.5038 20.9242 14.5038 20.924 14.5038C20.9239 14.5038 20.9238 14.5038 20.9237 14.5038C20.9237 14.5038 20.9236 14.5038 20.9236 14.5038C20.9236 14.5038 20.9236 14.5038 20.9236 14.5038C20.9236 14.5038 20.9236 14.5038 20.9331 14.6667ZM19.0666 14.8298H20.9331V14.5035H19.0666V14.8298ZM9.75934 28.1163L20.692 17.3636L20.4632 17.131L9.53057 27.8837L9.75934 28.1163ZM5.46745 28.1631H9.64495V27.8369H5.46745V28.1631ZM16.2857 17.131L5.35306 27.8837L5.58183 28.1163L16.5145 17.3636L16.2857 17.131ZM18.3555 17.0842H16.4001V17.4104H18.3555V17.0842ZM20.5776 17.0842H18.3555V17.4104H20.5776V17.0842Z" fill="#0A6BE5" mask="url(#path-1-inside-1_861_25266)"/>
</svg>
