<svg width="17" height="19" viewBox="0 0 17 19" fill="none" xmlns="http://www.w3.org/2000/svg">
<path d="M1.7478 12.3856C1.7478 12.3856 1.29092 11.0348 1.18114 10.1356C1.07463 9.26332 1.1811 7.88562 1.1811 7.88562C1.1811 7.88562 1.40048 6.80125 1.74767 6.19812C2.21348 5.38894 2.881 4.51062 2.881 4.51062M15.3487 14.639C15.3487 14.639 15.9153 10.14 15.3487 7.88912C15.1553 7.12072 14.7817 6.19929 14.215 5.07429C13.5543 3.7626 11.8744 2.50499 11.3817 2.26137C10.8891 2.01775 10.0224 1.79082 9.11443 1.6974C8.45406 1.62945 8.06691 1.57593 7.41438 1.6974C6.44164 1.87849 5.14776 2.82264 5.14776 2.82264M4.582 11.8264C4.582 11.8264 4.34471 8.90469 5.12328 7.32639C5.66312 6.23204 6.16485 5.5383 7.30061 5.07601C8.36582 4.64244 9.22409 4.55479 10.2487 5.07601C11.2335 5.577 11.5672 6.29527 11.9487 7.32639C12.4064 8.56361 12.5153 10.7014 12.5153 10.7014M4.01533 16.3264L4.582 14.0764M6.84866 17.4514C6.84866 17.4514 8.2224 14.8001 8.54866 12.9514C8.85415 11.2204 8.54866 8.45139 8.54866 8.45139M10.8153 17.4514C10.8153 17.4514 11.6101 16.111 11.9487 15.2014C12.2675 14.3448 12.5153 12.9514 12.5153 12.9514" stroke="white" stroke-width="1.125" stroke-linecap="round"/>
</svg>
