<svg width="15" height="15" viewBox="0 0 15 15" fill="none" xmlns="http://www.w3.org/2000/svg">
<circle cx="7.5" cy="7.5" r="7.5" fill="#0A6BE5"/>
<path d="M9.40471 5.70588C9.40471 5.97412 9.32353 6.23529 9.16118 6.48941C8.99882 6.73647 8.76588 6.94118 8.46235 7.10353C8.15882 7.26588 7.79529 7.34706 7.37176 7.34706H7.09647L7.30824 9.2H7.94353L8.01765 7.92941C8.41294 7.90823 8.78 7.79882 9.11882 7.60118C9.45765 7.39647 9.73294 7.13176 9.94471 6.80706C10.1565 6.47529 10.2624 6.10823 10.2624 5.70588C10.2624 5.38823 10.2024 5.09529 10.0824 4.82706C9.96941 4.55882 9.80706 4.32588 9.59529 4.12823C9.39059 3.92353 9.14706 3.76471 8.86471 3.65176C8.58941 3.53882 8.28588 3.48235 7.95412 3.48235C7.53765 3.48235 7.18471 3.53529 6.89529 3.64118C6.61294 3.74 6.37294 3.8847 6.17529 4.07529C5.97765 4.25882 5.79765 4.47412 5.63529 4.72118L6.32353 5.15529C6.48588 4.88706 6.69059 4.67529 6.93765 4.52C7.19176 4.35765 7.49529 4.27647 7.84824 4.27647C8.16588 4.27647 8.44118 4.33294 8.67412 4.44588C8.90706 4.55882 9.08706 4.72118 9.21412 4.93294C9.34118 5.14471 9.40471 5.40235 9.40471 5.70588ZM7.06471 10.5765C7.06471 10.7318 7.12118 10.8694 7.23412 10.9894C7.35412 11.1024 7.49176 11.1588 7.64706 11.1588C7.80941 11.1588 7.94706 11.1024 8.06 10.9894C8.17294 10.8694 8.22941 10.7318 8.22941 10.5765C8.22941 10.4141 8.17294 10.2765 8.06 10.1635C7.94706 10.0506 7.80941 9.99412 7.64706 9.99412C7.49176 9.99412 7.35412 10.0506 7.23412 10.1635C7.12118 10.2765 7.06471 10.4141 7.06471 10.5765Z" fill="white"/>
</svg>
