<svg width="217" height="192" viewBox="0 0 217 192" fill="none" xmlns="http://www.w3.org/2000/svg">
<g clip-path="url(#clip0_941_54546)">
<rect x="60.7605" y="32.1771" width="54.2862" height="54.2862" rx="7.95102" transform="rotate(-17.8304 60.7605 32.1771)" fill="#2D80EA" stroke="#6AA0FC" stroke-width="0.548346"/>
<circle cx="57.5763" cy="134.106" r="57.3021" fill="#2D80EA" stroke="#6AA0FC" stroke-width="0.548346"/>
<path d="M84.3785 142.445C82.6005 139.52 82.6256 135.842 84.4434 132.941L154.594 21.0039C156.249 18.3638 159.145 16.7608 162.261 16.7608L203.088 16.7608C206.27 16.7608 209.217 18.4315 210.851 21.161L230.159 53.411C231.903 56.3248 231.869 59.9701 230.07 62.8507L160.138 174.843C158.494 177.476 155.616 179.082 152.512 179.099L111.928 179.317C108.751 179.334 105.798 177.684 104.148 174.969L84.3785 142.445Z" fill="#2D80EA" stroke="#6AA0FC" stroke-width="0.548346"/>
<path d="M203.656 29.1194C205.057 26.8475 208.365 26.8637 209.743 29.1491L217.732 42.3991L217.733 42.4004L225.871 56.0719C226.551 57.2132 226.539 58.6376 225.841 59.7678L159.668 166.925C158.257 169.21 154.922 169.173 153.562 166.857L137.67 139.798C137.002 138.66 137.017 137.246 137.709 136.123L203.656 29.1194Z" fill="#2D80EA" stroke="#6AA0FC" stroke-width="0.548346"/>
<path d="M93.4255 189.989L92.6709 192.671H203.437L202.839 190.343C202.151 187.668 200.672 185.263 198.595 183.443L197.671 182.634C195.171 180.444 191.961 179.236 188.637 179.236H107.851C105.312 179.236 102.823 179.941 100.662 181.273L99.4328 182.029C96.5021 183.834 94.3577 186.676 93.4255 189.989Z" fill="#2D80EA" stroke="#6AA0FC" stroke-width="0.548346"/>
<path d="M218.971 105.863C217.926 103.909 219.787 101.675 221.897 102.349L266.195 116.491C268.438 117.207 268.499 120.358 266.285 121.161L249.774 127.149C249.15 127.375 248.617 127.802 248.26 128.362L241.641 138.738C240.401 140.682 237.526 140.571 236.439 138.538L218.971 105.863Z" fill="#2D80EA" stroke="#6AA0FC" stroke-width="0.548346"/>
</g>
<defs>
<clipPath id="clip0_941_54546">
<rect width="217" height="191.526" fill="white" transform="translate(0 0.474609)"/>
</clipPath>
</defs>
</svg>
