<svg width="16" height="19" viewBox="0 0 16 19" fill="none" xmlns="http://www.w3.org/2000/svg">
<path fill-rule="evenodd" clip-rule="evenodd" d="M0.252035 9C0.087506 9.63924 0 10.3094 0 11C0 15.4183 3.58172 19 8 19C12.4183 19 16 15.4183 16 11C16 6.58172 12.4183 3 8 3V4.5C11.5899 4.5 14.5 7.41015 14.5 11C14.5 14.5899 11.5899 17.5 8 17.5C4.41015 17.5 1.5 14.5899 1.5 11C1.5 10.3022 1.60996 9.63006 1.8135 9H0.252035Z" fill="#0A6BE5"/>
<path d="M5 4L8.75 0.535898L8.75 7.4641L5 4Z" fill="#0A6BE5"/>
</svg>
