<svg width="20" height="20" viewBox="0 0 20 20" fill="none" xmlns="http://www.w3.org/2000/svg">
<path d="M9.99984 14.1667V16.15C9.99984 17.7083 9.37484 18.3333 7.80817 18.3333H3.84984C2.2915 18.3333 1.6665 17.7083 1.6665 16.15V12.1917C1.6665 10.625 2.2915 10 3.84984 10H5.83317V11.975C5.83317 13.5417 6.45817 14.1667 8.0165 14.1667H9.99984Z" stroke="#0A6BE5" stroke-width="1.25" stroke-linecap="round" stroke-linejoin="round"/>
<path d="M14.1668 10.0007V11.9757C14.1668 13.5423 13.5418 14.1673 11.9752 14.1673H8.01683C6.4585 14.1673 5.8335 13.5423 5.8335 11.9757V8.01732C5.8335 6.45898 6.4585 5.83398 8.01683 5.83398H10.0002V7.80898C10.0002 9.37565 10.6252 10.0007 12.1835 10.0007H14.1668Z" stroke="#0A6BE5" stroke-width="1.25" stroke-linecap="round" stroke-linejoin="round"/>
<path d="M18.3333 3.84935V7.80768C18.3333 9.37435 17.7083 9.99935 16.1417 9.99935H12.1833C10.625 9.99935 10 9.37435 10 7.80768V3.84935C10 2.29102 10.625 1.66602 12.1833 1.66602H16.1417C17.7083 1.66602 18.3333 2.29102 18.3333 3.84935Z" stroke="#0A6BE5" stroke-width="1.25" stroke-linecap="round" stroke-linejoin="round"/>
</svg>
