<svg width="263" height="233" viewBox="0 0 263 233" fill="none" xmlns="http://www.w3.org/2000/svg">
<g clip-path="url(#clip0_1516_14500)">
<line y1="-0.332293" x2="957.003" y2="-0.332293" transform="matrix(-1 0 0 1 388.783 204.9)" stroke="#6AA0FC" stroke-width="0.664586"/>
<line y1="-0.332293" x2="957.003" y2="-0.332293" transform="matrix(-1 0 0 1 388.783 174.994)" stroke="#6AA0FC" stroke-width="0.664586"/>
<line y1="-0.332293" x2="957.003" y2="-0.332293" transform="matrix(-1 0 0 1 388.783 145.088)" stroke="#6AA0FC" stroke-width="0.664586"/>
<line y1="-0.332293" x2="957.003" y2="-0.332293" transform="matrix(-1 0 0 1 388.783 115.182)" stroke="#6AA0FC" stroke-width="0.664586"/>
<line y1="-0.332293" x2="957.003" y2="-0.332293" transform="matrix(-1 0 0 1 388.783 85.2754)" stroke="#6AA0FC" stroke-width="0.664586"/>
<line y1="-0.332293" x2="957.003" y2="-0.332293" transform="matrix(-1 0 0 1 388.783 55.3691)" stroke="#6AA0FC" stroke-width="0.664586"/>
<line y1="-0.332293" x2="957.003" y2="-0.332293" transform="matrix(-1 0 0 1 388.783 25.4629)" stroke="#6AA0FC" stroke-width="0.664586"/>
<line y1="-0.332293" x2="288.442" y2="-0.332293" transform="matrix(0 -1 -1 0 101.018 289.314)" stroke="#6AA0FC" stroke-width="0.664586"/>
<line y1="-0.332293" x2="288.442" y2="-0.332293" transform="matrix(0 -1 -1 0 148.867 289.314)" stroke="#6AA0FC" stroke-width="0.664586"/>
<line y1="-0.332293" x2="288.442" y2="-0.332293" transform="matrix(0 -1 -1 0 196.719 289.314)" stroke="#6AA0FC" stroke-width="0.664586"/>
<line y1="-0.332293" x2="288.442" y2="-0.332293" transform="matrix(0 -1 -1 0 244.566 289.314)" stroke="#6AA0FC" stroke-width="0.664586"/>
</g>
<g clip-path="url(#clip1_1516_14500)">
<rect x="73.6407" y="39.2986" width="65.794" height="65.794" rx="9.63649" transform="rotate(-17.8304 73.6407 39.2986)" fill="#2D80EA" stroke="#6AA0FC" stroke-width="0.664586"/>
<circle cx="69.7815" cy="162.832" r="69.4492" fill="#2D80EA" stroke="#6AA0FC" stroke-width="0.664586"/>
<path d="M102.265 172.938C100.11 169.393 100.141 164.935 102.344 161.419L187.366 25.7536C189.371 22.5539 192.881 20.6111 196.657 20.6111L246.139 20.6111C249.995 20.6111 253.567 22.636 255.548 25.944L278.948 65.0305C281.062 68.562 281.021 72.98 278.841 76.4712L194.084 212.204C192.092 215.395 188.604 217.341 184.842 217.362L135.655 217.626C131.804 217.647 128.225 215.647 126.225 212.356L102.265 172.938Z" fill="#2D80EA" stroke="#6AA0FC" stroke-width="0.664586"/>
<path d="M246.826 35.589C248.523 32.8355 252.533 32.855 254.203 35.6249L263.885 51.6837L263.886 51.6853L273.75 68.2548C274.573 69.6381 274.559 71.3645 273.713 72.7342L193.513 202.607C191.803 205.376 187.761 205.331 186.112 202.525L166.852 169.73C166.042 168.351 166.06 166.637 166.899 165.275L246.826 35.589Z" fill="#2D80EA" stroke="#6AA0FC" stroke-width="0.664586"/>
<path d="M113.231 230.559L112.316 233.81H246.563L245.838 230.988C245.005 227.746 243.212 224.831 240.694 222.625L239.575 221.645C236.545 218.991 232.654 217.527 228.626 217.527H130.714C127.637 217.527 124.621 218.382 122.001 219.995L120.512 220.913C116.96 223.1 114.361 226.544 113.231 230.559Z" fill="#2D80EA" stroke="#6AA0FC" stroke-width="0.664586"/>
<path d="M265.388 128.603C264.122 126.235 266.377 123.527 268.935 124.344L322.623 141.484C325.341 142.351 325.416 146.171 322.733 147.144L302.722 154.401C301.965 154.675 301.32 155.192 300.886 155.871L292.864 168.447C291.361 170.803 287.877 170.669 286.559 168.204L265.388 128.603Z" fill="#2D80EA" stroke="#6AA0FC" stroke-width="0.664586"/>
</g>
<defs>
<clipPath id="clip0_1516_14500">
<rect width="206.97" height="232.126" fill="white" transform="matrix(-1 0 0 1 263 0.873047)"/>
</clipPath>
<clipPath id="clip1_1516_14500">
<rect width="263" height="232.126" fill="white" transform="translate(0 0.873047)"/>
</clipPath>
</defs>
</svg>
