<svg width="67" height="67" viewBox="0 0 67 67" fill="none" xmlns="http://www.w3.org/2000/svg">
<path d="M33.5005 64.7656C50.7685 64.7656 64.767 50.767 64.767 33.499C64.767 16.2309 50.7685 2.23242 33.5005 2.23242C16.2324 2.23242 2.23389 16.2309 2.23389 33.499C2.23389 50.767 16.2324 64.7656 33.5005 64.7656Z" fill="white" stroke="#9AA3AF" stroke-width="2.23602" stroke-linecap="round" stroke-linejoin="round"/>
<path d="M52.8925 55.9767C47.6828 60.4873 40.9228 63.2015 33.5004 63.2015C26.0781 63.2015 19.318 60.4873 14.1084 55.9767C14.5801 53.8455 16.0933 51.6525 18.8309 49.8093C22.8039 47.1717 28.1269 45.8054 33.5239 45.8054C38.9221 45.8054 44.2277 47.1723 48.1673 49.8075C50.9066 51.6511 52.4206 53.8448 52.8925 55.9767Z" fill="#9AA3AF" stroke="#9AA3AF" stroke-width="3.13042" stroke-linecap="round" stroke-linejoin="round"/>
<path d="M33.9344 34.3717C33.652 34.3442 33.3516 34.3463 33.0727 34.372C28.4602 34.1597 24.8098 30.369 24.8098 25.7164C24.8098 20.9185 28.6771 17.0261 33.5001 17.0261C38.2935 17.0261 42.188 20.9193 42.1903 25.7122C42.1615 30.3749 38.534 34.1561 33.9344 34.3717Z" fill="#9AA3AF" stroke="#9AA3AF" stroke-width="3.13042" stroke-linecap="round" stroke-linejoin="round"/>
</svg>
