<svg width="30" height="30" viewBox="0 0 30 30" fill="none" xmlns="http://www.w3.org/2000/svg">
<path d="M15 28.9999C22.7319 28.9999 28.9999 22.7319 28.9999 15C28.9999 7.26799 22.7319 1 15 1C7.26799 1 1 7.26799 1 15C1 22.7319 7.26799 28.9999 15 28.9999Z" fill="#0A6BE5" stroke="#0A6BE5" stroke-linecap="round" stroke-linejoin="round"/>
<path d="M8.7478 17.8856C8.7478 17.8856 8.29092 16.5348 8.18114 15.6356C8.07463 14.7633 8.1811 13.3856 8.1811 13.3856C8.1811 13.3856 8.40048 12.3012 8.74767 11.6981C9.21348 10.8889 9.881 10.0106 9.881 10.0106M22.3487 20.139C22.3487 20.139 22.9153 15.64 22.3487 13.3891C22.1553 12.6207 21.7817 11.6993 21.215 10.5743C20.5543 9.2626 18.8744 8.00499 18.3817 7.76137C17.8891 7.51775 17.0224 7.29082 16.1144 7.1974C15.4541 7.12945 15.0669 7.07593 14.4144 7.1974C13.4416 7.37849 12.1478 8.32264 12.1478 8.32264M11.582 17.3264C11.582 17.3264 11.3447 14.4047 12.1233 12.8264C12.6631 11.732 13.1648 11.0383 14.3006 10.576C15.3658 10.1424 16.2241 10.0548 17.2487 10.576C18.2335 11.077 18.5672 11.7953 18.9487 12.8264C19.4064 14.0636 19.5153 16.2014 19.5153 16.2014M11.0153 21.8264L11.582 19.5764M13.8487 22.9514C13.8487 22.9514 15.2224 20.3001 15.5487 18.4514C15.8542 16.7204 15.5487 13.9514 15.5487 13.9514M17.8153 22.9514C17.8153 22.9514 18.6101 21.611 18.9487 20.7014C19.2675 19.8448 19.5153 18.4514 19.5153 18.4514" stroke="white" stroke-width="1.125" stroke-linecap="round"/>
</svg>
